<?xml version="1.0" encoding="utf-8" ?>
<!DOCTYPE svg PUBLIC "-//W3C//DTD SVG 1.1//EN" "http://www.w3.org/Graphics/SVG/1.1/DTD/svg11.dtd">
<svg height="950" version="1.1" width="721" xmlns="http://www.w3.org/2000/svg">
<text font-family="Dialog" font-size="12" x="51" y="195">
admin</text>
<ellipse cx="68" cy="143" fill="#000000" rx="8.0" ry="7.5" stroke="#000000" stroke-width="1"/>
<ellipse cx="68" cy="143" fill="#ffffff" rx="7.0" ry="6.5" stroke="#ffffff" stroke-width="1"/>
<line fill="#000000" stroke="#000000" stroke-width="1" x1="68" x2="68" y1="151" y2="166"/>
<line fill="#000000" stroke="#000000" stroke-width="1" x1="58" x2="78" y1="156" y2="156"/>
<line fill="#000000" stroke="#000000" stroke-width="1" x1="68" x2="63" y1="166" y2="181"/>
<line fill="#000000" stroke="#000000" stroke-width="1" x1="68" x2="73" y1="166" y2="181"/>
<ellipse cx="365" cy="35" fill="#000000" rx="55.0" ry="21.0" stroke="#000000" stroke-width="1"/>
<ellipse cx="365" cy="35" fill="#ffffff" rx="54.0" ry="20.0" stroke="#ffffff" stroke-width="1"/>
<text font-family="Dialog" font-size="12" x="351" y="36">
login</text>
<ellipse cx="365" cy="115" fill="#000000" rx="55.0" ry="21.0" stroke="#000000" stroke-width="1"/>
<ellipse cx="365" cy="115" fill="#ffffff" rx="54.0" ry="20.0" stroke="#ffffff" stroke-width="1"/>
<text font-family="Dialog" font-size="12" x="332" y="116">
add student</text>
<ellipse cx="374" cy="203" fill="#000000" rx="56.0" ry="21.0" stroke="#000000" stroke-width="1"/>
<ellipse cx="374" cy="203" fill="#ffffff" rx="55.0" ry="20.0" stroke="#ffffff" stroke-width="1"/>
<text font-family="Dialog" font-size="12" x="334" y="204">
Delete student</text>
<text font-family="Dialog" font-size="12" x="634" y="187">
Database</text>
<ellipse cx="660" cy="135" fill="#000000" rx="8.0" ry="7.5" stroke="#000000" stroke-width="1"/>
<ellipse cx="660" cy="135" fill="#ffffff" rx="7.0" ry="6.5" stroke="#ffffff" stroke-width="1"/>
<line fill="#000000" stroke="#000000" stroke-width="1" x1="660" x2="660" y1="143" y2="158"/>
<line fill="#000000" stroke="#000000" stroke-width="1" x1="650" x2="670" y1="148" y2="148"/>
<line fill="#000000" stroke="#000000" stroke-width="1" x1="660" x2="655" y1="158" y2="173"/>
<line fill="#000000" stroke="#000000" stroke-width="1" x1="660" x2="665" y1="158" y2="173"/>
<polyline fill="none" points="76,140 325,49" stroke="#000000" stroke-width="1"/>
<polyline fill="none" points="77,143 311,120" stroke="#000000" stroke-width="1"/>
<ellipse cx="193" cy="132" fill="#000000" rx="0.5" ry="0.5" stroke="#000000" stroke-width="1"/>
<ellipse cx="194" cy="133" fill="#ffffff" rx="-0.5" ry="-0.5" stroke="#ffffff" stroke-width="1"/>
<polyline fill="none" points="78,156 322,194" stroke="#000000" stroke-width="1"/>
<polyline fill="none" points="651,132 406,48" stroke="#000000" stroke-width="1"/>
<polyline fill="none" points="651,132 419,118" stroke="#000000" stroke-width="1"/>
<polyline fill="none" points="650,148 638,142 421,191" stroke="#000000" stroke-width="1"/>
<ellipse cx="537" cy="163" fill="#000000" rx="0.5" ry="0.5" stroke="#000000" stroke-width="1"/>
<ellipse cx="538" cy="164" fill="#ffffff" rx="-0.5" ry="-0.5" stroke="#ffffff" stroke-width="1"/>
<ellipse cx="377" cy="296" fill="#000000" rx="75.0" ry="26.0" stroke="#000000" stroke-width="1"/>
<ellipse cx="377" cy="296" fill="#ffffff" rx="74.0" ry="25.0" stroke="#ffffff" stroke-width="1"/>
<text font-family="Dialog" font-size="12" x="316" y="297">
update student details</text>
<polyline fill="none" points="62,136 62,134 335,274" stroke="#000000" stroke-width="1"/>
<polyline fill="none" points="652,139 646,142 646,150 646,142 415,273" stroke="#000000" stroke-width="1"/>
<text font-family="Dialog" font-size="12" x="23" y="715">
Student</text>
<ellipse cx="44" cy="663" fill="#000000" rx="8.0" ry="7.5" stroke="#000000" stroke-width="1"/>
<ellipse cx="44" cy="663" fill="#ffffff" rx="7.0" ry="6.5" stroke="#ffffff" stroke-width="1"/>
<line fill="#000000" stroke="#000000" stroke-width="1" x1="44" x2="44" y1="671" y2="686"/>
<line fill="#000000" stroke="#000000" stroke-width="1" x1="34" x2="54" y1="676" y2="676"/>
<line fill="#000000" stroke="#000000" stroke-width="1" x1="44" x2="39" y1="686" y2="701"/>
<line fill="#000000" stroke="#000000" stroke-width="1" x1="44" x2="49" y1="686" y2="701"/>
<ellipse cx="357" cy="411" fill="#000000" rx="55.0" ry="21.0" stroke="#000000" stroke-width="1"/>
<ellipse cx="357" cy="411" fill="#ffffff" rx="54.0" ry="20.0" stroke="#ffffff" stroke-width="1"/>
<text font-family="Dialog" font-size="12" x="341" y="412">
Login</text>
<ellipse cx="357" cy="483" fill="#000000" rx="55.0" ry="21.0" stroke="#000000" stroke-width="1"/>
<ellipse cx="357" cy="483" fill="#ffffff" rx="54.0" ry="20.0" stroke="#ffffff" stroke-width="1"/>
<text font-family="Dialog" font-size="12" x="328" y="484">
username</text>
<ellipse cx="357" cy="555" fill="#000000" rx="55.0" ry="21.0" stroke="#000000" stroke-width="1"/>
<ellipse cx="357" cy="555" fill="#ffffff" rx="54.0" ry="20.0" stroke="#ffffff" stroke-width="1"/>
<text font-family="Dialog" font-size="12" x="346" y="556">
age</text>
<ellipse cx="357" cy="627" fill="#000000" rx="55.0" ry="21.0" stroke="#000000" stroke-width="1"/>
<ellipse cx="357" cy="627" fill="#ffffff" rx="54.0" ry="20.0" stroke="#ffffff" stroke-width="1"/>
<text font-family="Dialog" font-size="12" x="334" y="628">
address</text>
<ellipse cx="357" cy="699" fill="#000000" rx="55.0" ry="21.0" stroke="#000000" stroke-width="1"/>
<ellipse cx="357" cy="699" fill="#ffffff" rx="54.0" ry="20.0" stroke="#ffffff" stroke-width="1"/>
<text font-family="Dialog" font-size="12" x="331" y="700">
timetable</text>
<ellipse cx="365" cy="771" fill="#000000" rx="55.0" ry="21.0" stroke="#000000" stroke-width="1"/>
<ellipse cx="365" cy="771" fill="#ffffff" rx="54.0" ry="20.0" stroke="#ffffff" stroke-width="1"/>
<text font-family="Dialog" font-size="12" x="347" y="772">
reg no</text>
<ellipse cx="365" cy="843" fill="#000000" rx="55.0" ry="21.0" stroke="#000000" stroke-width="1"/>
<ellipse cx="365" cy="843" fill="#ffffff" rx="54.0" ry="20.0" stroke="#ffffff" stroke-width="1"/>
<text font-family="Dialog" font-size="12" x="348" y="844">
logout</text>
<text font-family="Dialog" font-size="12" x="650" y="707">
database</text>
<ellipse cx="676" cy="655" fill="#000000" rx="8.0" ry="7.5" stroke="#000000" stroke-width="1"/>
<ellipse cx="676" cy="655" fill="#ffffff" rx="7.0" ry="6.5" stroke="#ffffff" stroke-width="1"/>
<line fill="#000000" stroke="#000000" stroke-width="1" x1="676" x2="676" y1="663" y2="678"/>
<line fill="#000000" stroke="#000000" stroke-width="1" x1="666" x2="686" y1="668" y2="668"/>
<line fill="#000000" stroke="#000000" stroke-width="1" x1="676" x2="671" y1="678" y2="693"/>
<line fill="#000000" stroke="#000000" stroke-width="1" x1="676" x2="681" y1="678" y2="693"/>
<polyline fill="none" points="51,658 326,500" stroke="#000000" stroke-width="1"/>
<ellipse cx="188" cy="580" fill="#000000" rx="0.5" ry="0.5" stroke="#000000" stroke-width="1"/>
<ellipse cx="189" cy="581" fill="#ffffff" rx="-0.5" ry="-0.5" stroke="#ffffff" stroke-width="1"/>
<polyline fill="none" points="53,663 304,633" stroke="#000000" stroke-width="1"/>
<polyline fill="none" points="54,676 303,694" stroke="#000000" stroke-width="1"/>
<ellipse cx="178" cy="683" fill="#000000" rx="0.5" ry="0.5" stroke="#000000" stroke-width="1"/>
<ellipse cx="179" cy="684" fill="#ffffff" rx="-0.5" ry="-0.5" stroke="#ffffff" stroke-width="1"/>
<polyline fill="none" points="44,671 46,678 321,758" stroke="#000000" stroke-width="1"/>
<ellipse cx="179" cy="715" fill="#000000" rx="0.5" ry="0.5" stroke="#000000" stroke-width="1"/>
<ellipse cx="180" cy="716" fill="#ffffff" rx="-0.5" ry="-0.5" stroke="#ffffff" stroke-width="1"/>
<polyline fill="none" points="52,660 46,662 334,825" stroke="#000000" stroke-width="1"/>
<ellipse cx="188" cy="739" fill="#000000" rx="0.5" ry="0.5" stroke="#000000" stroke-width="1"/>
<ellipse cx="189" cy="740" fill="#ffffff" rx="-0.5" ry="-0.5" stroke="#ffffff" stroke-width="1"/>
<polyline fill="none" points="51,658 333,429" stroke="#000000" stroke-width="1"/>
<polyline fill="none" points="668,650 406,422 404,421" stroke="#000000" stroke-width="1"/>
<polyline fill="none" points="668,650 406,486 411,486" stroke="#000000" stroke-width="1"/>
<polyline fill="none" points="667,652 399,568" stroke="#000000" stroke-width="1"/>
<polyline fill="none" points="667,652 410,631" stroke="#000000" stroke-width="1"/>
<polyline fill="none" points="667,655 670,654 408,691" stroke="#000000" stroke-width="1"/>
<polyline fill="none" points="667,655 670,654 403,756" stroke="#000000" stroke-width="1"/>
<ellipse cx="538" cy="703" fill="#000000" rx="0.5" ry="0.5" stroke="#000000" stroke-width="1"/>
<ellipse cx="539" cy="704" fill="#ffffff" rx="-0.5" ry="-0.5" stroke="#ffffff" stroke-width="1"/>
<polyline fill="none" points="667,655 670,654 406,830 407,829" stroke="#000000" stroke-width="1"/>
<ellipse cx="540" cy="741" fill="#000000" rx="0.5" ry="0.5" stroke="#000000" stroke-width="1"/>
<ellipse cx="541" cy="742" fill="#ffffff" rx="-0.5" ry="-0.5" stroke="#ffffff" stroke-width="1"/>
</svg>
